<svg xmlns="http://www.w3.org/2000/svg" width="512" height="512" viewBox="0 0 512 512">
  <defs>
    <linearGradient id="giftBg" x1="64" y1="48" x2="448" y2="464" gradientUnits="userSpaceOnUse">
      <stop offset="0" stop-color="#ff4fa3"/>
      <stop offset="1" stop-color="#c21875"/>
    </linearGradient>
  </defs>
  <rect width="512" height="512" rx="112" fill="url(#giftBg)"/>
  <rect x="104" y="228" width="304" height="180" rx="28" fill="#ffffff"/>
  <rect x="88" y="184" width="336" height="72" rx="24" fill="#ffffff"/>
  <rect x="238" y="172" width="36" height="236" rx="18" fill="#ff4fa3"/>
  <rect x="104" y="274" width="304" height="32" rx="16" fill="#ff4fa3"/>
  <path d="M232 186C208 186 188 169 188 147C188 124 205 108 226 108C246 108 259 121 274 152L256 186H232Z" fill="#ffffff"/>
  <path d="M280 186C304 186 324 169 324 147C324 124 307 108 286 108C266 108 253 121 238 152L256 186H280Z" fill="#ffffff"/>
</svg>
